<?xml version="1.0" encoding="UTF-8" standalone="no"?><!DOCTYPE svg PUBLIC "-//W3C//DTD SVG 1.1//EN" "http://www.w3.org/Graphics/SVG/1.1/DTD/svg11.dtd"><svg width="100%" height="100%" viewBox="0 0 12518 5770" version="1.1" xmlns="http://www.w3.org/2000/svg" xmlns:xlink="http://www.w3.org/1999/xlink" xml:space="preserve" xmlns:serif="http://www.serif.com/" style="fill-rule:evenodd;clip-rule:evenodd;stroke-linejoin:round;stroke-miterlimit:2;"><g id="white"></g><g id="black"></g><g id="black-purple"><rect id="namemark_black-purple" x="0" y="0" width="12517.6" height="5769.44" style="fill:none;"/><g id="namemark_black-purple1" serif:id="namemark_black-purple"><g id="wordmark"><path id="y" d="M10327.4,1878.15c64.75,-6.2 129.282,0.84 185.907,34.928c260.062,156.559 107.281,754.259 62.812,996.45c-15.625,84.772 -27.094,170.259 -34.344,256.15c-7,93.25 -2.281,208.406 39.563,293.531c23.812,53.781 102.25,91.531 158.562,69.562c126.282,-49.25 159.125,-274.562 179.032,-388.593c62.625,-359.022 33.937,-725.941 -38.469,-1080.83c-10.281,-50.31 -24.719,-133.941 -39.688,-182.7c205.813,2.609 416.438,0.197 622.625,-0.316c-133.125,493.956 -178.187,1041.88 -133.125,1551.47c30,381.656 162.094,922.5 -198.656,1191.88c-174.375,120.5 -393.75,115.5 -587.281,48.437c-142.938,-49.531 -260.844,-87.875 -376.969,47.656c-6.219,-14.687 -12.062,-29.5 -17.562,-44.468c-66.063,-183.625 -7.125,-494.157 196.718,-575.563c133.282,-44.781 279.313,54.719 372.375,139.031c84.282,76.375 190.063,197.25 316.032,150.875c37.562,-13.906 67.843,-42.562 83.75,-79.343c62.187,-140.657 -44.438,-377.25 -96.782,-514.094l-92.156,-245.031c-18.5,30.562 -36.531,79.468 -52.062,113.781c-48.844,107.937 -121.375,169.187 -236.469,211c-84.375,29.187 -208.344,28.156 -287.781,-11.5c-199.094,-99.5 -239.969,-302.938 -227.969,-506.438c9.531,-161.031 40.125,-327.031 56.5,-488.981c21.031,-207.815 63.031,-657.794 -168.563,-767.265c76.125,-132.916 160.75,-195.257 314,-219.625Z" style="fill:#8927b0;fill-rule:nonzero;"/><path id="f" d="M9568.26,1057.46c102.032,-12.3 198.743,19.686 293.368,55.623c87.875,33.363 131.76,11.75 204.26,-58.9c25.74,160.828 11.474,589.65 -201.838,614.125c-174.688,20.038 -241.719,-219.525 -397.125,-240.491c-17.5,-2.362 -48.75,10.732 -59.969,24.832c-84.188,117.525 19.812,261.943 102.406,344.697c139.25,139.493 305.438,82.843 488.594,78.59c13.469,100.994 -3.438,270.347 -16.438,373.878c-79.812,-0.622 -159.625,-0.643 -239.437,-0.065c-47.719,373.022 -18.781,761.081 27.219,1133.46c23.906,167.562 53.562,344.844 109.406,505.031c-222.469,5.938 -470.063,1.813 -694.625,2.281c132.812,-367.718 191.437,-1252.95 126.437,-1640.79l-182.5,1.022c-13.781,-110.929 -4.593,-264.36 9,-374.879c43.844,0.247 87.657,0.244 131.5,-0.009c-14.937,-68.831 -27.187,-101.131 -41.781,-169.719c-59.812,-281.34 11.836,-605.07 341.523,-648.679Z" style="fill:#8927b0;fill-rule:nonzero;"/><path id="l" d="M9026.19,1052.79c10.594,1.328 36.969,19.956 47.219,26.6c-10.344,59.975 -24.102,116.06 -34.509,176.782c-16.437,100.018 -29.812,200.512 -40.125,301.346c-58.625,554.713 -102.718,1841.81 130.688,2332.72l-719.563,0.531c68.032,-146.062 97.313,-391.125 117.375,-552.593c51.563,-451.919 61.907,-907.597 30.938,-1361.4c-11.219,-160.675 -25.75,-331.081 -68.406,-486.431c-16.532,-60.138 -45.157,-116.004 -76.657,-169.532c83.688,-40.662 200.844,-74.612 295.157,-116.068c59.5,-26.329 118.187,-54.391 176,-84.16c45.25,-23.419 95.727,-47.875 141.883,-67.797Z" style="fill:#8927b0;fill-rule:nonzero;"/><g id="e"><path d="M7804.65,1875.22c19.469,-0.797 38.969,-0.79 58.438,0.022c361.5,15.941 496.969,409.197 483.094,721.253c-15.313,344.128 -269.938,567.747 -612,430.922c-86.688,-34.678 -143.782,-91.956 -204.844,-160.934c1.375,10.14 2.844,20.262 4.406,30.372c27.75,176.578 115.281,394.137 262.938,505.262c152.437,114.688 368.843,82.625 481.25,-72.406c14.656,-17.938 34.287,-67.747 48.939,-83.065c47.152,-49.291 76.173,10.839 76.279,55.596c0.274,115.384 -67.75,309.344 -165.812,425.313c-79.125,94.656 -193.313,153.093 -316.375,161.968c-171.906,13.157 -295.625,-26.562 -431.938,-134.906c-490.718,-390.125 -428.781,-1829.38 315.625,-1879.4Zm-191.098,279.866c93.719,-30.962 190.637,50.344 266.581,248.004c74.333,193.467 100.162,366.18 -33.26,441.845c-97.37,55.219 -233.902,-69.178 -304.894,-265.017c-46.446,-128.124 -65.573,-379.524 71.573,-424.832Z" style="fill:#8927b0;"/></g><g id="o"><path d="M6425.59,1872.25c132.344,-3.832 240.906,22.056 346.25,107.5c199.312,166.262 281.187,457.018 308.75,703.359c46.844,419.138 -21.906,1153.41 -565.281,1208.53c-143.438,2.157 -227.875,-12.218 -346.844,-103.531c-176.781,-135.656 -281.313,-400.719 -304.625,-617.812c-37.5,-349.144 -17.094,-820.813 208.844,-1111.38c94.562,-121.662 203.718,-170.606 352.906,-186.668Zm-127.594,301.872c212.325,-52.954 311.906,388.106 349.344,526.412c65.156,240.547 121.219,507.953 91.781,757.391c-8.5,72.25 -38.426,155.866 -103.031,168.437c-157.942,30.733 -263.75,-265.187 -305.5,-385.219c-40.219,-117.343 -73.5,-236.959 -99.625,-358.218c-34.469,-166.869 -73.123,-497.637 -10.482,-637.924c14.275,-31.969 45.915,-62.999 77.513,-70.879Z" style="fill:#000001;"/></g><g id="s"><path d="M5096.74,1875.36c92.781,-5.656 176.313,0.753 266.313,26.487c68.031,19.444 127.562,42.272 199.593,45.597c80.094,3.694 100.063,-20.093 154.625,-69.843c70.844,138.962 28.407,413.218 -92.343,515.584c-31.375,26.144 -70.032,42.028 -110.75,45.519c-220.844,18.775 -338.782,-321.822 -495.844,-331.685c-28.563,-1.797 -56.969,7.538 -77.969,27.228c-21.969,20.591 -30.812,47.569 -30.594,77.204c1.375,184.153 308.813,359.865 444.469,454.778c70.563,49.381 139.813,101.147 202.406,160.522c139.094,131.953 224.969,284.456 229.969,480.24c4.406,172.031 -38.375,300.5 -160.219,427.156c-113.062,117.532 -268.906,155.344 -426.562,159.125c-88.75,1.594 -177.094,-12.218 -261.125,-40.812c-160.5,-54.781 -283.531,-108 -317.469,-282.813c-49,-252.187 140.438,-464.037 398.031,-371.375c-12.531,171.313 45.125,328.375 174.532,444.219c125.656,112.469 285.75,54.094 269.781,-121.375c-4.844,-53.125 -34.219,-107.75 -61.688,-152.406c-216.031,-344.794 -709.968,-426.072 -757,-887.388c-31.781,-311.678 126.532,-570.609 451.844,-605.962Z" style="fill:#000001;fill-rule:nonzero;"/></g><g id="e1" serif:id="e"><path d="M3949.46,1875.57c23,-1.265 45.625,-1.678 68.687,-1.403c478.282,5.697 649.625,803.91 338.719,1095.66c-85.125,79.89 -185,107.353 -301.187,100.393c-164.563,-9.856 -259.407,-83.956 -363.688,-201.575c12.094,90.204 35.563,178.519 69.781,262.844c100.5,248 332.157,461.406 604.532,278.5c22.5,-15.531 33.389,-23.155 53.062,-44.75c61.006,-66.964 59.691,-143.594 119.375,-133.781c25.049,4.118 24.983,30.827 25.594,48c5.25,147.469 -61.057,373.283 -146.438,468.031c-87.338,96.921 -187.5,121.281 -319.812,138.781c-456.156,60.282 -700.719,-338.125 -741.563,-729.062c-37.375,-357.8 -12.437,-774.069 219.844,-1068.89c98.75,-125.35 214.313,-194.409 373.094,-212.747Zm-171.021,278.106c93.719,-30.962 190.638,50.344 266.581,248.004c74.334,193.467 100.162,366.18 -33.26,441.845c-97.369,55.219 -233.901,-69.178 -304.894,-265.017c-46.445,-128.124 -65.572,-379.524 71.573,-424.832Z" style="fill:#000001;"/></g><path id="m" d="M2039.52,1875.41c70.282,-2.494 138.25,6.263 198.032,45.55c126.281,82.969 156.906,178.1 188.656,314.381c69.75,-142.215 147.812,-304.168 319.656,-348.231c184.875,-47.394 347.688,29.813 416.969,210.166c109.375,284.678 10.719,582.012 -16.031,872.643c-16.157,163.538 -26.782,331.538 15.593,492.35c30.094,114.282 65.157,171.688 165.375,230.094c-5.406,13.031 -11.468,24.281 -19,36.063c-58.25,90.906 -140.593,130.906 -249.687,154.656c-67.969,14.812 -169.75,12.594 -228,-27.656c-262.781,-181.594 -107.563,-694.282 -75.281,-952.71c19.343,-154.925 43.062,-306.25 12.875,-460.834c-12.657,-53.606 -34.907,-128.8 -85.032,-159.113c-66.156,-40 -148.031,0.494 -182.718,62.785c-42.75,76.734 -65.625,171.419 -82.469,257.6c-58.5,299.047 -57.969,615.897 -14.688,916.959c17.5,118.188 51.594,253.813 79.938,369.188l-176.188,1.343c-141.5,2.063 -289,-0.187 -431.093,-0.343c48.781,-185.219 73.125,-395.875 94.187,-586.657c4.375,-39.562 13.156,-88.562 16.031,-126.937c17.5,-237.681 38.75,-482.466 0.25,-719c-12.718,-78.053 -63.968,-214.897 -168.125,-188.047c-128.812,33.2 -164.812,254.728 -183.687,368.4c-54.938,330.284 -38.031,682.459 21.625,1011.49c14.437,79.656 37.937,162.406 59.281,240.375c-208.812,1.718 -417.594,2.125 -626.406,1.187c3.312,-13.094 8.281,-26.156 12.094,-39.187c58.312,-199.5 84.781,-409.157 104.218,-615.875c30.094,-320.022 42.719,-652.316 -29.125,-967.847c-19.25,-84.563 -48.437,-167.088 -122.468,-218.119c4.187,-7.153 8.625,-14.156 13.312,-20.987c49.063,-70.282 153.844,-134.369 239.188,-147.397c254.625,-38.872 302.093,144.481 337.218,351.803c32.157,-72.266 72.313,-144.744 121.875,-206.147c78.438,-97.166 150.657,-139.003 273.625,-151.947Z" style="fill:#000001;fill-rule:nonzero;"/></g></g></g></svg>