<?xml version="1.0" encoding="UTF-8" standalone="no"?><!DOCTYPE svg PUBLIC "-//W3C//DTD SVG 1.1//EN" "http://www.w3.org/Graphics/SVG/1.1/DTD/svg11.dtd"><svg width="100%" height="100%" viewBox="0 0 18106 5770" version="1.1" xmlns="http://www.w3.org/2000/svg" xmlns:xlink="http://www.w3.org/1999/xlink" xml:space="preserve" xmlns:serif="http://www.serif.com/" style="fill-rule:evenodd;clip-rule:evenodd;stroke-linejoin:round;stroke-miterlimit:2;"><g id="white"></g><g id="black"><rect id="combination-mark_black" x="0" y="0" width="18105.5" height="5769.44" style="fill:none;"/><g id="combination-mark_black1" serif:id="combination-mark_black"><g id="combination-mark" serif:id="combination mark"><g id="wordmark"><path id="y" d="M15915.2,1878.15c64.751,-6.2 129.282,0.84 185.907,34.928c260.062,156.559 107.281,754.259 62.812,996.45c-15.625,84.772 -27.093,170.259 -34.343,256.15c-7,93.25 -2.282,208.406 39.562,293.531c23.813,53.781 102.25,91.531 158.563,69.562c126.281,-49.25 159.125,-274.562 179.031,-388.593c62.625,-359.022 33.937,-725.941 -38.469,-1080.83c-10.281,-50.31 -24.719,-133.941 -39.687,-182.7c205.812,2.609 416.437,0.197 622.625,-0.316c-133.125,493.956 -178.188,1041.88 -133.125,1551.47c30,381.656 162.093,922.5 -198.657,1191.88c-174.375,120.5 -393.75,115.5 -587.281,48.437c-142.937,-49.531 -260.844,-87.875 -376.969,47.656c-6.218,-14.687 -12.062,-29.5 -17.562,-44.468c-66.063,-183.625 -7.125,-494.157 196.719,-575.563c133.281,-44.781 279.312,54.719 372.375,139.031c84.281,76.375 190.062,197.25 316.031,150.875c37.562,-13.906 67.844,-42.562 83.75,-79.343c62.187,-140.657 -44.438,-377.25 -96.781,-514.094l-92.157,-245.031c-18.5,30.562 -36.531,79.468 -52.062,113.781c-48.844,107.937 -121.375,169.187 -236.469,211c-84.375,29.187 -208.344,28.156 -287.781,-11.5c-199.094,-99.5 -239.969,-302.938 -227.969,-506.438c9.531,-161.031 40.125,-327.031 56.5,-488.981c21.031,-207.815 63.031,-657.794 -168.562,-767.265c76.125,-132.916 160.75,-195.257 314,-219.625Z" style="fill-rule:nonzero;"/><path id="f" d="M15156.1,1057.46c102.031,-12.3 198.743,19.686 293.368,55.623c87.875,33.363 131.759,11.75 204.259,-58.9c25.74,160.828 11.474,589.65 -201.838,614.125c-174.688,20.038 -241.719,-219.525 -397.125,-240.491c-17.5,-2.362 -48.75,10.732 -59.969,24.832c-84.188,117.525 19.812,261.943 102.406,344.697c139.25,139.493 305.438,82.843 488.594,78.59c13.469,100.994 -3.438,270.347 -16.438,373.878c-79.812,-0.622 -159.624,-0.643 -239.437,-0.065c-47.719,373.022 -18.781,761.081 27.219,1133.46c23.906,167.562 53.562,344.844 109.406,505.031c-222.469,5.938 -470.063,1.813 -694.625,2.281c132.812,-367.718 191.437,-1252.95 126.437,-1640.79l-182.499,1.022c-13.782,-110.929 -4.594,-264.36 8.999,-374.879c43.844,0.247 87.657,0.244 131.501,-0.009c-14.938,-68.831 -27.188,-101.131 -41.782,-169.719c-59.812,-281.34 11.836,-605.07 341.524,-648.679Z" style="fill-rule:nonzero;"/><path id="l" d="M14614,1052.79c10.593,1.328 36.968,19.956 47.218,26.6c-10.343,59.975 -24.102,116.06 -34.509,176.782c-16.437,100.018 -29.812,200.512 -40.125,301.346c-58.625,554.713 -102.718,1841.81 130.688,2332.72l-719.563,0.531c68.032,-146.062 97.313,-391.125 117.375,-552.593c51.563,-451.919 61.907,-907.597 30.938,-1361.4c-11.219,-160.675 -25.75,-331.081 -68.406,-486.431c-16.532,-60.138 -45.157,-116.004 -76.657,-169.532c83.688,-40.662 200.844,-74.612 295.157,-116.068c59.5,-26.329 118.187,-54.391 176,-84.16c45.25,-23.419 95.727,-47.875 141.884,-67.797Z" style="fill-rule:nonzero;"/><g id="e"><path d="M13392.4,1875.22c19.468,-0.797 38.968,-0.79 58.437,0.022c361.5,15.941 496.969,409.197 483.094,721.253c-15.313,344.128 -269.938,567.747 -612,430.922c-86.688,-34.678 -143.781,-91.956 -204.844,-160.934c1.375,10.14 2.844,20.262 4.406,30.372c27.75,176.578 115.281,394.137 262.938,505.262c152.437,114.688 368.844,82.625 481.25,-72.406c14.656,-17.938 34.287,-67.747 48.939,-83.065c47.152,-49.291 76.174,10.839 76.28,55.596c0.273,115.384 -67.751,309.344 -165.813,425.313c-79.125,94.656 -193.313,153.093 -316.375,161.968c-171.906,13.157 -295.625,-26.562 -431.938,-134.906c-490.718,-390.125 -428.781,-1829.38 315.625,-1879.4Zm-191.098,279.866c93.719,-30.962 190.637,50.344 266.581,248.004c74.333,193.467 100.162,366.18 -33.26,441.845c-97.37,55.219 -233.902,-69.178 -304.894,-265.017c-46.446,-128.124 -65.573,-379.524 71.573,-424.832Z"/></g><g id="o"><path d="M12013.4,1872.25c132.344,-3.832 240.906,22.056 346.25,107.5c199.313,166.262 281.188,457.018 308.75,703.359c46.844,419.138 -21.906,1153.41 -565.281,1208.53c-143.438,2.157 -227.875,-12.218 -346.844,-103.531c-176.781,-135.656 -281.313,-400.719 -304.625,-617.812c-37.5,-349.144 -17.094,-820.813 208.844,-1111.38c94.562,-121.662 203.719,-170.606 352.906,-186.668Zm-127.594,301.872c212.326,-52.954 311.906,388.106 349.344,526.412c65.156,240.547 121.219,507.953 91.781,757.391c-8.5,72.25 -38.426,155.866 -103.031,168.437c-157.942,30.733 -263.75,-265.187 -305.5,-385.219c-40.219,-117.343 -73.5,-236.959 -99.625,-358.218c-34.469,-166.869 -73.122,-497.637 -10.481,-637.924c14.274,-31.969 45.914,-62.999 77.512,-70.879Z" style="fill:#000001;"/></g><g id="s"><path d="M10684.5,1875.36c92.781,-5.656 176.313,0.753 266.313,26.487c68.031,19.444 127.562,42.272 199.593,45.597c80.094,3.694 100.063,-20.093 154.625,-69.843c70.844,138.962 28.407,413.218 -92.343,515.584c-31.375,26.144 -70.032,42.028 -110.75,45.519c-220.844,18.775 -338.782,-321.822 -495.844,-331.685c-28.563,-1.797 -56.969,7.538 -77.969,27.228c-21.969,20.591 -30.812,47.569 -30.594,77.204c1.375,184.153 308.813,359.865 444.469,454.778c70.563,49.381 139.813,101.147 202.406,160.522c139.094,131.953 224.969,284.456 229.969,480.24c4.406,172.031 -38.375,300.5 -160.219,427.156c-113.062,117.532 -268.906,155.344 -426.562,159.125c-88.75,1.594 -177.094,-12.218 -261.125,-40.812c-160.5,-54.781 -283.531,-108 -317.469,-282.813c-49,-252.187 140.438,-464.037 398.031,-371.375c-12.531,171.313 45.125,328.375 174.532,444.219c125.656,112.469 285.75,54.094 269.781,-121.375c-4.844,-53.125 -34.219,-107.75 -61.688,-152.406c-216.031,-344.794 -709.968,-426.072 -757,-887.388c-31.781,-311.678 126.532,-570.609 451.844,-605.962Z" style="fill:#000001;fill-rule:nonzero;"/></g><g id="e1" serif:id="e"><path d="M9537.25,1875.57c23,-1.265 45.625,-1.678 68.688,-1.403c478.281,5.697 649.624,803.91 338.718,1095.66c-85.125,79.89 -185,107.353 -301.187,100.393c-164.563,-9.856 -259.407,-83.956 -363.688,-201.575c12.094,90.204 35.563,178.519 69.781,262.844c100.5,248 332.157,461.406 604.532,278.5c22.5,-15.531 33.389,-23.155 53.062,-44.75c61.006,-66.964 59.691,-143.594 119.375,-133.781c25.049,4.118 24.983,30.827 25.594,48c5.25,147.469 -61.057,373.283 -146.438,468.031c-87.338,96.921 -187.499,121.281 -319.812,138.781c-456.156,60.282 -700.719,-338.125 -741.563,-729.062c-37.374,-357.8 -12.437,-774.069 219.844,-1068.89c98.75,-125.35 214.313,-194.409 373.094,-212.747Zm-171.02,278.106c93.718,-30.962 190.637,50.344 266.581,248.004c74.333,193.467 100.161,366.18 -33.261,441.845c-97.369,55.219 -233.901,-69.178 -304.894,-265.017c-46.445,-128.124 -65.572,-379.524 71.574,-424.832Z" style="fill:#000001;"/></g><path id="m" d="M7627.31,1875.41c70.282,-2.494 138.251,6.263 198.032,45.55c126.281,82.969 156.906,178.1 188.656,314.381c69.75,-142.215 147.813,-304.168 319.656,-348.231c184.875,-47.394 347.688,29.813 416.969,210.166c109.375,284.678 10.719,582.012 -16.031,872.643c-16.156,163.538 -26.781,331.538 15.594,492.35c30.093,114.282 65.156,171.688 165.375,230.094c-5.407,13.031 -11.469,24.281 -19,36.063c-58.25,90.906 -140.594,130.906 -249.688,154.656c-67.969,14.812 -169.75,12.594 -228,-27.656c-262.781,-181.594 -107.562,-694.282 -75.281,-952.71c19.344,-154.925 43.062,-306.25 12.875,-460.834c-12.656,-53.606 -34.906,-128.8 -85.031,-159.113c-66.157,-40 -148.032,0.494 -182.719,62.785c-42.75,76.734 -65.625,171.419 -82.469,257.6c-58.5,299.047 -57.969,615.897 -14.687,916.959c17.5,118.188 51.593,253.813 79.937,369.188l-176.187,1.343c-141.5,2.063 -289,-0.187 -431.094,-0.343c48.781,-185.219 73.125,-395.875 94.187,-586.657c4.375,-39.562 13.157,-88.562 16.032,-126.937c17.5,-237.681 38.75,-482.466 0.25,-719c-12.719,-78.053 -63.969,-214.897 -168.125,-188.047c-128.813,33.2 -164.813,254.728 -183.688,368.4c-54.937,330.284 -38.031,682.459 21.625,1011.49c14.438,79.656 37.938,162.406 59.281,240.375c-208.812,1.718 -417.593,2.125 -626.406,1.187c3.313,-13.094 8.281,-26.156 12.094,-39.187c58.312,-199.5 84.781,-409.157 104.219,-615.875c30.093,-320.022 42.718,-652.316 -29.125,-967.847c-19.25,-84.563 -48.438,-167.088 -122.469,-218.119c4.187,-7.153 8.625,-14.156 13.312,-20.987c49.063,-70.282 153.844,-134.369 239.188,-147.397c254.625,-38.872 302.094,144.481 337.219,351.803c32.156,-72.266 72.312,-144.744 121.875,-206.147c78.437,-97.166 150.656,-139.003 273.625,-151.947Z" style="fill:#000001;fill-rule:nonzero;"/></g><g id="logomark"><path id="M-B" d="M3723.01,2034.02c121.713,-711.237 766.369,-987.956 1423.38,-982.213c39.466,0.344 100.689,0.417 140.123,0.823l165.739,-0.177c81.487,2.157 132.516,-15.178 135.083,68.266c1.189,39.562 -0.109,78.14 0.043,116.734c0.2,51.003 0.478,128.637 -0.367,190.247c-0.219,25.528 -3.291,111.397 -22.72,112.952c-22.796,1.825 -55.503,-48.708 -81.98,-70.152c-343.732,-278.519 -972.796,145.194 -925.851,553.95c8.638,77.894 48.447,148.987 110.383,197.115c253.316,199.779 662.834,-23.29 807.206,-247.531c16.806,-26.109 67.759,-136.846 90.823,-134.781c17.1,1.531 19.472,35.238 20.124,51.269c3.495,85.93 1.392,170.849 1.705,255.833l0.924,477.357c0.094,91.094 0.281,182.419 -0.094,273.519c-0.094,21.916 3.92,65.412 -17.151,68.616c-9.146,1.39 -20.124,-1.425 -26.289,-8.885c-88.476,-107.009 -197.545,-161.315 -340.133,-155.068c-307.96,13.496 -652.819,293.115 -649.658,617.434c0.783,79.156 38.683,162.375 98.773,214c236.29,198.437 593.386,30.781 767.74,-167.875c28.198,-32.063 53.517,-66.563 75.613,-103.094c15.836,-26.219 44.906,-110.081 75.11,-100.288c21.253,6.89 13.58,172.335 14.774,261.163c1.908,141.934 0.713,524.64 0.713,524.64l-0.238,406.401c-0.927,80.677 -3.233,157.517 -11.022,228.365c-2.253,20.497 -24.425,30.992 -42.209,31.575c-64.76,2.121 -119.021,0.679 -262.746,1.269l-562.34,-0.5c-236.197,-0.031 -433.48,0.132 -711.536,0.133c-21.25,-0.718 -51.792,-0.477 -70.507,-11.07c-18.653,-10.532 -28.104,-33.375 -32.486,-53.219c-12.8,-57.875 4.131,-221.156 7.323,-287.75c19.624,-410.938 14.209,-661.25 253.535,-1019.19c140.554,-210.218 317.756,-397.19 507.383,-563.784c62.907,-55.269 169.66,-123.894 219.202,-181.559c26.133,-30.41 44.849,-69.757 37.494,-110.747c-4.569,-25.335 -20.249,-45.188 -41.28,-59.325c-113.858,-76.422 -537.115,-61.553 -676.98,-31.272c-123.56,26.75 -233.943,68.362 -337.442,142.303c-38.964,27.828 -76.458,58.875 -102.434,99.628c-15.648,24.416 -26.414,51.616 -31.735,80.11c-6.635,35.315 -1.634,51.426 -6.583,48.963c-0.976,-0.486 -0.374,-516.764 -0.374,-516.764c-1.252,-205.472 0.422,-189.535 0.961,-217.423Z" style="fill-rule:nonzero;"/><path id="M-A" d="M3725.53,3102.92c-3.812,149.194 3.875,301.038 -1.156,450.1c-8.094,240 -13.688,476.407 -8.656,716.469c1.937,80.188 4.656,160.344 8.125,240.469c1.687,43.844 4.937,88.969 2.718,132.781c-4.249,83.719 -89.929,71.57 -148.397,72.664c-31,0.562 -266.283,0.419 -350.126,0.669c-165.534,0.493 -299.581,-0.391 -451.709,-0.766c-64.213,-0.468 -133.955,0.486 -202.503,-0.357c-18.571,-0.229 -37.239,-2.116 -53.502,-11.429c-15.453,-8.875 -24.791,-27.656 -29.603,-44.125c-14.325,-49 8.675,-374.812 11.941,-450.125c6.753,-155.625 16.703,-308.468 57.928,-459.468c98.618,-361.219 405.756,-717.238 684.94,-956.857c64.125,-55.043 223.563,-162.693 257.032,-228.746c13.968,-27.579 19.75,-61.829 8.875,-91.422c-10.813,-29.41 -37.282,-48.51 -64.969,-60.657c-63.031,-27.625 -138.594,-32.084 -206.656,-36.484c-201.338,-13.028 -415.375,-4.712 -605.735,68.741c-114.022,43.997 -278.062,150.39 -327.875,266.662c-6.89,16.253 -11.356,33.428 -13.253,50.981c-3.806,37.213 -1.291,98.979 -0.659,137.81c0.893,63.09 1.45,126.184 1.675,189.281l12.053,1036.97c1.253,88.969 3.269,177.906 6.05,266.812c2.484,76.75 13.165,202.75 -2.181,280.688c-2.26,11.469 -15.645,33.703 -47.554,37.219c-77.226,8.51 -159.281,4.5 -237.428,4.437l-461.218,0.031l-294.419,-0.187c-43.66,-0.031 -94.432,1.183 -137.985,-0.629c-16.435,-0.656 -27.428,-1.34 -42.021,-9.465c-15.879,-8.875 -25.775,-24.906 -30.832,-42c-13.825,-46.656 10.135,-378.875 13.747,-455.406c3.669,-77.781 4.488,-156.469 12.588,-233.906c8.178,-78.188 25.753,-158.532 46.497,-234.25c96.125,-350.782 410.253,-714.682 683.368,-947.166c28.485,-24.425 57.578,-48.128 87.253,-71.087c59.029,-45.441 136.572,-92.313 170.872,-160.741c13.2,-26.328 18.144,-59.169 7.869,-87.363c-34.312,-94.153 -221.219,-96.181 -303.4,-99.706c-51.244,-2.2 -102.547,-4.247 -153.822,-1.822c-67.709,3.203 -356.58,31.652 -407.931,7.641c-6.136,-2.869 -13.606,-6.676 -12.346,-14.363c2.086,-12.736 57.971,-33.968 79.93,-41.087c33.041,-10.756 65.8,-22.356 98.244,-34.791c77.922,-30.3 181.175,-82.272 242.8,-138.4c137.731,-125.447 222.194,-320.378 237.178,-504.634c12.419,-141.05 -1.606,-282.516 -4.881,-423.706c-0.969,-41.738 -12.669,-107.875 16.4,-141.288c11.306,-12.994 30.193,-27.927 56.318,-28.274c98.501,-1.305 197.416,0.377 295.913,0.259l551.052,-0.03l571.454,-0.319l214.722,0.204c89.332,0.621 158.385,-7.24 162.9,53.073c5.563,74.293 2.844,152.012 2.438,226.865c-5.469,85.228 -1.344,214.341 -1.406,302.453c-0.907,205.475 -0.719,410.954 0.531,616.425l-1.407,513.888l-0.437,217.125c0,35.825 -1.406,85.409 0.656,120.337Z" style="fill:#000001;fill-rule:nonzero;"/></g></g></g></g><g id="black-purple"></g></svg>