<?xml version="1.0" encoding="UTF-8" standalone="no"?><!DOCTYPE svg PUBLIC "-//W3C//DTD SVG 1.1//EN" "http://www.w3.org/Graphics/SVG/1.1/DTD/svg11.dtd"><svg width="100%" height="100%" viewBox="0 0 6642 5770" version="1.1" xmlns="http://www.w3.org/2000/svg" xmlns:xlink="http://www.w3.org/1999/xlink" xml:space="preserve" xmlns:serif="http://www.serif.com/" style="fill-rule:evenodd;clip-rule:evenodd;stroke-linejoin:round;stroke-miterlimit:2;"><g id="white"></g><g id="black"><rect id="logomark_black" x="0" y="0" width="6641.72" height="5769.44" style="fill:none;"/><g id="logomark_black1" serif:id="logomark_black"><g id="logomark"><path id="M-B" d="M3723.01,2034.02c121.713,-711.237 766.369,-987.956 1423.38,-982.213c39.466,0.344 100.689,0.417 140.123,0.823l165.739,-0.177c81.487,2.157 132.516,-15.178 135.083,68.266c1.189,39.562 -0.109,78.14 0.043,116.734c0.2,51.003 0.478,128.637 -0.367,190.247c-0.219,25.528 -3.291,111.397 -22.72,112.952c-22.796,1.825 -55.503,-48.708 -81.98,-70.152c-343.732,-278.519 -972.796,145.194 -925.851,553.95c8.638,77.894 48.447,148.987 110.383,197.115c253.316,199.779 662.834,-23.29 807.206,-247.531c16.806,-26.109 67.759,-136.846 90.823,-134.781c17.1,1.531 19.472,35.238 20.124,51.269c3.495,85.93 1.392,170.849 1.705,255.833l0.924,477.357c0.094,91.094 0.281,182.419 -0.094,273.519c-0.094,21.916 3.92,65.412 -17.151,68.616c-9.146,1.39 -20.124,-1.425 -26.289,-8.885c-88.476,-107.009 -197.545,-161.315 -340.133,-155.068c-307.96,13.496 -652.819,293.115 -649.658,617.434c0.783,79.156 38.683,162.375 98.773,214c236.29,198.437 593.386,30.781 767.74,-167.875c28.198,-32.063 53.517,-66.563 75.613,-103.094c15.836,-26.219 44.906,-110.081 75.11,-100.288c21.253,6.89 13.58,172.335 14.774,261.163c1.908,141.934 0.713,524.64 0.713,524.64l-0.238,406.401c-0.927,80.677 -3.233,157.517 -11.022,228.365c-2.253,20.497 -24.425,30.992 -42.209,31.575c-64.76,2.121 -119.021,0.679 -262.746,1.269l-562.34,-0.5c-236.197,-0.031 -433.48,0.132 -711.536,0.133c-21.25,-0.718 -51.792,-0.477 -70.507,-11.07c-18.653,-10.532 -28.104,-33.375 -32.486,-53.219c-12.8,-57.875 4.131,-221.156 7.323,-287.75c19.624,-410.938 14.209,-661.25 253.535,-1019.19c140.554,-210.218 317.756,-397.19 507.383,-563.784c62.907,-55.269 169.66,-123.894 219.202,-181.559c26.133,-30.41 44.849,-69.757 37.494,-110.747c-4.569,-25.335 -20.249,-45.188 -41.28,-59.325c-113.858,-76.422 -537.115,-61.553 -676.98,-31.272c-123.56,26.75 -233.943,68.362 -337.442,142.303c-38.964,27.828 -76.458,58.875 -102.434,99.628c-15.648,24.416 -26.414,51.616 -31.735,80.11c-6.635,35.315 -1.634,51.426 -6.583,48.963c-0.976,-0.486 -0.374,-516.764 -0.374,-516.764c-1.252,-205.472 0.422,-189.535 0.961,-217.423Z" style="fill-rule:nonzero;"/><path id="M-A" d="M3725.53,3102.92c-3.812,149.194 3.875,301.038 -1.156,450.1c-8.094,240 -13.688,476.407 -8.656,716.469c1.937,80.188 4.656,160.344 8.125,240.469c1.687,43.844 4.937,88.969 2.718,132.781c-4.249,83.719 -89.929,71.57 -148.397,72.664c-31,0.562 -266.283,0.419 -350.126,0.669c-165.534,0.493 -299.581,-0.391 -451.709,-0.766c-64.213,-0.468 -133.955,0.486 -202.503,-0.357c-18.571,-0.229 -37.239,-2.116 -53.502,-11.429c-15.453,-8.875 -24.791,-27.656 -29.603,-44.125c-14.325,-49 8.675,-374.812 11.941,-450.125c6.753,-155.625 16.703,-308.468 57.928,-459.468c98.618,-361.219 405.756,-717.238 684.94,-956.857c64.125,-55.043 223.563,-162.693 257.032,-228.746c13.968,-27.579 19.75,-61.829 8.875,-91.422c-10.813,-29.41 -37.282,-48.51 -64.969,-60.657c-63.031,-27.625 -138.594,-32.084 -206.656,-36.484c-201.338,-13.028 -415.375,-4.712 -605.735,68.741c-114.022,43.997 -278.062,150.39 -327.875,266.662c-6.89,16.253 -11.356,33.428 -13.253,50.981c-3.806,37.213 -1.291,98.979 -0.659,137.81c0.893,63.09 1.45,126.184 1.675,189.281l12.053,1036.97c1.253,88.969 3.269,177.906 6.05,266.812c2.484,76.75 13.165,202.75 -2.181,280.688c-2.26,11.469 -15.645,33.703 -47.554,37.219c-77.226,8.51 -159.281,4.5 -237.428,4.437l-461.218,0.031l-294.419,-0.187c-43.66,-0.031 -94.432,1.183 -137.985,-0.629c-16.435,-0.656 -27.428,-1.34 -42.021,-9.465c-15.879,-8.875 -25.775,-24.906 -30.832,-42c-13.825,-46.656 10.135,-378.875 13.747,-455.406c3.669,-77.781 4.488,-156.469 12.588,-233.906c8.178,-78.188 25.753,-158.532 46.497,-234.25c96.125,-350.782 410.253,-714.682 683.368,-947.166c28.485,-24.425 57.578,-48.128 87.253,-71.087c59.029,-45.441 136.572,-92.313 170.872,-160.741c13.2,-26.328 18.144,-59.169 7.869,-87.363c-34.312,-94.153 -221.219,-96.181 -303.4,-99.706c-51.244,-2.2 -102.547,-4.247 -153.822,-1.822c-67.709,3.203 -356.58,31.652 -407.931,7.641c-6.136,-2.869 -13.606,-6.676 -12.346,-14.363c2.086,-12.736 57.971,-33.968 79.93,-41.087c33.041,-10.756 65.8,-22.356 98.244,-34.791c77.922,-30.3 181.175,-82.272 242.8,-138.4c137.731,-125.447 222.194,-320.378 237.178,-504.634c12.419,-141.05 -1.606,-282.516 -4.881,-423.706c-0.969,-41.738 -12.669,-107.875 16.4,-141.288c11.306,-12.994 30.193,-27.927 56.318,-28.274c98.501,-1.305 197.416,0.377 295.913,0.259l551.052,-0.03l571.454,-0.319l214.722,0.204c89.332,0.621 158.385,-7.24 162.9,53.073c5.563,74.293 2.844,152.012 2.438,226.865c-5.469,85.228 -1.344,214.341 -1.406,302.453c-0.907,205.475 -0.719,410.954 0.531,616.425l-1.407,513.888l-0.437,217.125c0,35.825 -1.406,85.409 0.656,120.337Z" style="fill:#000001;fill-rule:nonzero;"/></g></g></g><g id="black-purple"></g></svg>