<?xml version="1.0" encoding="UTF-8" standalone="no"?><!DOCTYPE svg PUBLIC "-//W3C//DTD SVG 1.1//EN" "http://www.w3.org/Graphics/SVG/1.1/DTD/svg11.dtd"><svg width="100%" height="100%" viewBox="0 0 49991 11452" version="1.1" xmlns="http://www.w3.org/2000/svg" xmlns:xlink="http://www.w3.org/1999/xlink" xml:space="preserve" xmlns:serif="http://www.serif.com/" style="fill-rule:evenodd;clip-rule:evenodd;stroke-linejoin:round;stroke-miterlimit:2;"><g id="combination-mark_white"><g id="combination-mark" serif:id="combination mark"><g id="wordmark"><path id="y" d="M46440.7,2582.6c202.347,-19.375 404.006,2.625 580.959,109.15c812.694,489.247 335.253,2357.06 196.288,3113.91c-48.828,264.913 -84.666,532.06 -107.322,800.469c-21.875,291.406 -7.131,651.269 123.631,917.284c74.416,168.066 319.531,286.035 495.509,217.382c394.629,-153.907 497.266,-858.007 559.472,-1214.35c195.703,-1121.94 106.053,-2268.57 -120.215,-3377.59c-32.128,-157.219 -77.247,-418.566 -124.022,-570.938c643.162,8.153 1301.37,0.616 1945.7,-0.987c-416.016,1543.61 -556.838,3255.88 -416.016,4848.34c93.75,1192.67 506.541,2882.81 -620.803,3724.62c-544.922,376.562 -1230.47,360.937 -1835.25,151.365c-446.678,-154.784 -815.137,-274.609 -1178.03,148.925c-19.431,-45.897 -37.694,-92.187 -54.881,-138.962c-206.447,-573.828 -22.266,-1544.24 614.747,-1798.63c416.503,-139.94 872.85,170.997 1163.67,434.472c263.379,238.672 593.944,616.406 987.597,471.485c117.382,-43.457 212.013,-133.007 261.719,-247.947c194.334,-439.553 -138.869,-1178.91 -302.441,-1606.54l-287.99,-765.722c-57.813,95.506 -114.16,248.338 -162.694,355.566c-152.637,337.303 -379.297,528.709 -738.966,659.375c-263.671,91.209 -651.075,87.987 -899.315,-35.938c-622.169,-310.937 -749.903,-946.681 -712.403,-1582.62c29.784,-503.221 125.39,-1021.97 176.562,-1528.07c65.722,-649.422 196.972,-2055.61 -526.756,-2397.7c237.891,-415.363 502.344,-610.178 981.25,-686.328l-0.003,-0.013Z" style="fill:#fff;fill-rule:nonzero;"/><path id="f" d="M44068.5,17.939c318.847,-38.438 621.072,61.519 916.775,173.822c274.61,104.259 411.747,36.718 638.31,-184.063c80.437,502.588 35.856,1842.66 -630.744,1919.14c-545.9,62.619 -755.372,-686.016 -1241.02,-751.535c-54.687,-7.381 -152.343,33.538 -187.403,77.6c-263.087,367.266 61.913,818.572 320.019,1077.18c435.156,435.915 954.494,258.884 1526.86,245.593c42.091,315.607 -10.744,844.835 -51.369,1168.37c-249.412,-1.944 -498.825,-2.009 -748.24,-0.203c-149.122,1165.69 -58.691,2378.38 85.059,3542.06c74.706,523.632 167.381,1077.64 341.894,1578.22c-695.216,18.557 -1468.95,5.666 -2170.7,7.128c415.037,-1149.12 598.24,-3915.47 395.115,-5127.47l-570.309,3.193c-43.069,-346.653 -14.356,-826.125 28.122,-1171.5c137.012,0.771 273.928,0.762 410.941,-0.029c-46.682,-215.096 -84.963,-316.034 -130.569,-530.371c-186.913,-879.188 36.987,-1890.84 1067.26,-2027.12l0,-0.022Z" style="fill:#fff;fill-rule:nonzero;"/><path id="l" d="M42374.5,3.345c33.103,4.15 115.525,62.363 147.556,83.125c-32.322,187.422 -75.319,362.688 -107.841,552.444c-51.365,312.556 -93.162,626.6 -125.39,941.706c-183.203,1733.48 -320.994,5755.66 408.4,7289.75l-2248.64,1.659c212.6,-456.443 304.104,-1222.27 366.797,-1726.85c161.135,-1412.25 193.46,-2836.24 96.682,-4254.38c-35.06,-502.109 -80.469,-1034.63 -213.769,-1520.1c-51.663,-187.931 -141.116,-362.512 -239.553,-529.787c261.525,-127.069 627.637,-233.163 922.365,-362.713c185.938,-82.278 369.335,-169.971 550,-263c141.407,-73.184 299.147,-149.609 443.388,-211.865l-0,0.006Z" style="fill:#fff;fill-rule:nonzero;"/><g id="e"><path d="M38557,2573.44c60.837,-2.491 121.775,-2.469 182.615,0.069c1129.69,49.815 1553.03,1278.74 1509.67,2253.91c-47.853,1075.4 -843.556,1774.21 -1912.5,1346.63c-270.9,-108.368 -449.315,-287.362 -640.137,-502.918c4.297,31.687 8.887,63.318 13.768,94.912c86.719,551.806 360.254,1231.68 821.682,1578.94c476.365,358.4 1152.64,258.203 1503.91,-226.269c45.8,-56.056 107.147,-211.709 152.934,-259.578c147.35,-154.034 238.044,33.872 238.375,173.738c0.853,360.575 -211.722,966.7 -518.165,1329.1c-247.266,295.8 -604.103,478.415 -988.672,506.15c-537.206,41.115 -923.828,-83.007 -1349.81,-421.582c-1533.49,-1219.14 -1339.94,-5716.81 986.328,-5873.12l0.003,0.01Zm-597.181,874.581c292.871,-96.756 595.74,157.325 833.065,775.013c232.291,604.584 313.006,1144.31 -103.937,1380.77c-304.282,172.56 -730.944,-216.181 -952.794,-828.178c-145.144,-400.387 -204.916,-1186.01 223.666,-1327.6Z" style="fill:#fff;"/></g><g id="o"><path d="M34247.6,2564.16c413.575,-11.975 752.831,68.925 1082.03,335.937c622.853,519.569 878.713,1428.18 964.844,2198c146.387,1309.81 -68.456,3604.41 -1766.5,3776.66c-448.244,6.741 -712.11,-38.181 -1083.89,-323.534c-552.44,-423.925 -879.103,-1252.25 -951.953,-1930.66c-117.187,-1091.08 -53.419,-2565.04 652.638,-3473.06c295.506,-380.194 636.621,-533.144 1102.83,-583.338l-0,0.007Zm-398.731,943.35c663.518,-165.482 974.706,1212.83 1091.7,1645.04c203.612,751.709 378.809,1587.35 286.815,2366.85c-26.562,225.781 -120.081,487.081 -321.972,526.366c-493.568,96.04 -824.218,-828.71 -954.687,-1203.81c-125.685,-366.697 -229.688,-740.497 -311.328,-1119.43c-107.716,-521.466 -228.507,-1555.12 -32.753,-1993.51c44.606,-99.903 143.481,-196.871 242.225,-221.496Z" style="fill:#fff;"/></g><g id="s"><path d="M30094.8,2573.88c289.941,-17.675 550.978,2.353 832.228,82.772c212.597,60.763 398.632,132.1 623.729,142.491c250.293,11.544 312.696,-62.791 483.203,-218.26c221.387,434.257 88.772,1291.31 -288.572,1611.2c-98.047,81.7 -218.85,131.338 -346.094,142.247c-690.137,58.672 -1058.69,-1005.69 -1549.51,-1036.52c-89.26,-5.616 -178.029,23.556 -243.654,85.087c-68.653,64.347 -96.287,148.653 -95.606,241.263c4.297,575.478 965.041,1124.58 1388.97,1421.18c220.509,154.316 436.915,316.084 632.519,501.631c434.668,412.353 703.028,888.925 718.653,1500.75c13.768,537.597 -119.922,939.063 -500.685,1334.86c-353.318,367.287 -840.331,485.45 -1333.01,497.265c-277.344,4.982 -553.419,-38.181 -816.016,-127.537c-501.562,-171.191 -886.034,-337.5 -992.09,-883.791c-153.125,-788.084 438.869,-1450.12 1243.85,-1160.55c-39.16,535.353 141.015,1026.17 545.412,1388.18c392.675,351.465 892.969,169.043 843.066,-379.297c-15.138,-166.016 -106.935,-336.719 -192.775,-476.269c-675.097,-1077.48 -2218.65,-1331.48 -2365.62,-2773.09c-99.316,-973.994 395.412,-1783.15 1412.01,-1893.63Z" style="fill:#fff;fill-rule:nonzero;"/></g><g id="e1" serif:id="e"><path d="M26509.6,2574.53c71.875,-3.954 142.578,-5.244 214.65,-4.385c1494.63,17.803 2030.08,2512.22 1058.49,3423.94c-266.016,249.656 -578.125,335.478 -941.21,313.728c-514.259,-30.8 -810.646,-262.363 -1136.53,-629.922c37.794,281.887 111.135,557.872 218.066,821.387c314.063,775 1037.99,1441.89 1889.16,870.313c70.312,-48.534 104.34,-72.359 165.818,-139.844c190.644,-209.262 186.535,-448.731 373.047,-418.065c78.278,12.868 78.072,96.334 79.981,150c16.407,460.84 -190.803,1166.51 -457.618,1462.6c-272.932,302.879 -585.935,379.004 -999.413,433.691c-1425.49,188.381 -2189.75,-1056.64 -2317.38,-2278.32c-116.794,-1118.12 -38.866,-2418.97 687.012,-3340.28c308.594,-391.719 669.728,-607.528 1165.92,-664.834l0,-0.003Zm-534.437,869.081c292.868,-96.756 595.74,157.325 833.065,775.012c232.291,604.585 313.003,1144.31 -103.94,1380.77c-304.279,172.559 -730.941,-216.181 -952.794,-828.178c-145.141,-400.388 -204.913,-1186.01 223.669,-1327.6Z" style="fill:#fff;"/></g><path id="m" d="M20541.1,2574.03c219.631,-7.794 432.034,19.571 618.85,142.343c394.628,259.278 490.331,556.563 589.55,982.441c217.968,-444.422 461.915,-950.525 998.925,-1088.22c577.734,-148.106 1086.53,93.166 1303.03,656.769c341.797,889.619 33.497,1818.79 -50.097,2727.01c-50.488,511.056 -83.691,1036.06 48.731,1538.59c94.041,357.131 203.613,536.525 516.797,719.044c-16.897,40.722 -35.841,75.878 -59.375,112.697c-182.031,284.081 -439.356,409.081 -780.275,483.3c-212.403,46.287 -530.469,39.356 -712.5,-86.425c-821.191,-567.482 -336.131,-2169.63 -235.253,-2977.22c60.45,-484.141 134.569,-957.031 40.234,-1440.11c-39.55,-167.519 -109.081,-402.5 -265.722,-497.229c-206.74,-125 -462.6,1.544 -570.997,196.204c-133.593,239.793 -205.078,535.684 -257.715,805c-182.813,934.521 -181.153,1924.68 -45.897,2865.5c54.687,369.338 161.228,793.166 249.803,1153.71l-550.584,4.197c-442.188,6.447 -903.125,-0.585 -1347.17,-1.072c152.441,-578.809 228.516,-1237.11 294.334,-1833.3c13.672,-123.631 41.116,-276.756 50.1,-396.678c54.688,-742.753 121.094,-1507.71 0.782,-2246.88c-39.747,-243.916 -199.904,-671.553 -525.391,-587.647c-402.541,103.75 -515.041,796.025 -574.025,1151.25c-171.678,1032.14 -118.847,2132.68 67.578,3160.91c45.119,248.925 118.556,507.519 185.253,751.172c-652.537,5.369 -1304.98,6.641 -1957.52,3.709c10.354,-40.918 25.879,-81.737 37.794,-122.459c182.225,-623.438 264.941,-1278.62 325.685,-1924.61c94.04,-1000.07 133.493,-2038.49 -91.016,-3024.52c-60.156,-264.26 -151.369,-522.15 -382.716,-681.622c13.085,-22.353 26.953,-44.238 41.6,-65.585c153.322,-219.631 480.763,-419.903 747.463,-460.615c795.703,-121.475 944.044,451.503 1053.81,1099.38c100.488,-225.831 225.975,-452.325 380.86,-644.209c245.115,-303.644 470.8,-434.385 855.078,-474.835l-0.003,0.004Z" style="fill:#fff;fill-rule:nonzero;"/></g><g id="logomark"><path id="M-B" d="M8340.12,3069.69c380.353,-2222.62 2394.9,-3087.36 4448.06,-3069.42c123.331,1.075 314.653,1.303 437.884,2.572l517.934,-0.553c254.647,6.741 414.113,-47.431 422.135,213.331c3.715,123.631 -0.341,244.188 0.134,364.794c0.625,159.384 1.494,401.991 -1.147,594.522c-0.684,79.775 -10.284,348.115 -71,352.975c-71.237,5.703 -173.447,-152.213 -256.187,-219.225c-1074.16,-870.372 -3039.99,453.731 -2893.28,1731.09c26.994,243.418 151.397,465.584 344.947,615.984c791.613,624.309 2071.36,-72.781 2522.52,-773.534c52.519,-81.591 211.747,-427.644 283.822,-421.191c53.437,4.784 60.85,110.119 62.887,160.216c10.922,268.531 4.35,533.903 5.328,799.478l2.888,1491.74c0.294,284.669 0.878,570.06 -0.294,854.747c-0.294,68.488 12.25,204.413 -53.597,214.425c-28.581,4.344 -62.887,-4.453 -82.153,-27.765c-276.487,-334.404 -617.328,-504.11 -1062.91,-484.588c-962.375,42.175 -2040.06,915.984 -2030.18,1929.48c2.447,247.363 120.885,507.422 308.666,668.75c738.406,620.116 1854.33,96.191 2399.19,-524.609c88.119,-100.197 167.241,-208.009 236.291,-322.169c49.488,-81.934 140.331,-344.003 234.719,-313.4c66.415,21.531 42.437,538.547 46.169,816.135c5.962,443.543 2.228,1639.5 2.228,1639.5l-0.744,1270c-2.897,252.115 -10.103,492.24 -34.444,713.64c-7.04,64.053 -76.328,96.85 -131.903,98.672c-202.375,6.628 -371.941,2.122 -821.081,3.966l-1757.31,-1.563c-738.115,-0.097 -1354.62,0.413 -2223.55,0.416c-66.406,-2.244 -161.85,-1.491 -220.334,-34.594c-58.291,-32.912 -87.825,-104.297 -101.519,-166.309c-40,-180.86 12.91,-691.113 22.885,-899.219c61.325,-1284.18 44.403,-2066.41 792.296,-3184.97c439.232,-656.931 992.988,-1241.22 1585.57,-1761.83c196.585,-172.715 530.188,-387.168 685.007,-567.372c81.665,-95.031 140.153,-217.99 117.168,-346.084c-14.278,-79.172 -63.278,-141.212 -129,-185.391c-355.806,-238.818 -1678.48,-192.353 -2115.56,-97.725c-386.125,83.594 -731.072,213.632 -1054.51,444.697c-121.763,86.963 -238.932,183.985 -320.107,311.338c-48.9,76.3 -82.543,161.3 -99.172,250.344c-20.734,110.359 -5.106,160.706 -20.571,153.009c-3.05,-1.519 -1.169,-1614.89 -1.169,-1614.89c-3.913,-642.1 1.319,-592.296 3.003,-679.446l0.003,0.006Z" style="fill:#fff;fill-rule:nonzero;"/><path id="M-A" d="M8347.99,6410c-11.912,466.232 12.109,940.744 -3.612,1406.56c-25.294,750 -42.775,1488.77 -27.05,2238.97c6.053,250.588 14.55,501.075 25.39,751.466c5.272,137.013 15.428,278.028 8.494,414.941c-13.278,261.622 -281.028,223.656 -463.741,227.075c-96.875,1.756 -832.134,1.309 -1094.14,2.09c-517.294,1.541 -936.191,-1.222 -1411.59,-2.393c-200.666,-1.463 -418.609,1.518 -632.822,-1.116c-58.034,-0.716 -116.372,-6.613 -167.194,-35.716c-48.29,-27.734 -77.472,-86.425 -92.509,-137.89c-44.766,-153.125 27.109,-1171.29 37.316,-1406.64c21.103,-486.328 52.196,-963.962 181.025,-1435.84c308.181,-1128.81 1267.99,-2241.37 2140.44,-2990.18c200.391,-172.009 698.634,-508.415 803.225,-714.831c43.65,-86.184 61.719,-193.215 27.734,-285.694c-33.79,-91.906 -116.506,-151.593 -203.028,-189.553c-196.972,-86.328 -433.106,-100.262 -645.8,-114.012c-629.181,-40.713 -1298.05,-14.725 -1892.92,214.815c-356.318,137.491 -868.943,469.969 -1024.61,833.319c-21.531,50.791 -35.487,104.463 -41.416,159.316c-11.893,116.29 -4.034,309.309 -2.059,430.656c2.791,197.156 4.531,394.325 5.234,591.503l37.666,3240.53c3.916,278.029 10.216,555.957 18.906,833.788c7.763,239.844 41.141,633.594 -6.815,877.15c-7.063,35.841 -48.891,105.322 -148.607,116.309c-241.331,26.594 -497.753,14.063 -741.962,13.866l-1441.31,0.097l-920.06,-0.585c-136.437,-0.096 -295.1,3.697 -431.203,-1.965c-51.359,-2.05 -85.712,-4.188 -131.315,-29.578c-49.622,-27.735 -80.547,-77.832 -96.35,-131.25c-43.204,-145.8 31.671,-1183.99 42.959,-1423.14c11.466,-243.066 14.025,-488.966 39.337,-730.956c25.557,-244.338 80.479,-495.413 145.304,-732.032c300.39,-1096.19 1282.04,-2233.38 2135.53,-2959.89c89.015,-76.328 179.931,-150.4 272.665,-222.147c184.466,-142.003 426.788,-288.478 533.975,-502.316c41.25,-82.275 56.7,-184.903 24.591,-273.009c-107.225,-294.228 -691.31,-300.566 -948.125,-311.581c-160.138,-6.875 -320.46,-13.272 -480.694,-5.694c-211.591,10.009 -1114.31,98.912 -1274.78,23.878c-19.175,-8.966 -42.519,-20.863 -38.582,-44.884c6.519,-39.8 181.16,-106.15 249.782,-128.397c103.253,-33.613 205.625,-69.863 307.012,-108.722c243.506,-94.688 566.172,-257.1 758.75,-432.5c430.41,-392.022 694.356,-1001.18 741.181,-1576.98c38.81,-440.782 -5.018,-882.863 -15.253,-1324.08c-3.028,-130.431 -39.59,-337.109 51.25,-441.525c35.332,-40.606 94.353,-87.272 175.994,-88.356c307.816,-4.078 616.925,1.178 924.728,0.809l1722.04,-0.093l1785.79,-0.997l671.007,0.637c279.162,1.941 494.953,-22.625 509.062,165.853c17.385,232.166 8.888,475.038 7.619,708.954c-17.091,266.337 -4.2,669.815 -4.394,945.165c-2.834,642.11 -2.247,1284.23 1.66,1926.33l-4.397,1605.9l-1.366,678.516c0,111.953 -4.394,266.903 2.05,376.053l0,0.006Z" style="fill:#fff;fill-rule:nonzero;"/></g></g></g></svg>