<?xml version="1.0" encoding="UTF-8" standalone="no"?><!DOCTYPE svg PUBLIC "-//W3C//DTD SVG 1.1//EN" "http://www.w3.org/Graphics/SVG/1.1/DTD/svg11.dtd"><svg width="100%" height="100%" viewBox="0 0 14168 11452" version="1.1" xmlns="http://www.w3.org/2000/svg" xmlns:xlink="http://www.w3.org/1999/xlink" xml:space="preserve" xmlns:serif="http://www.serif.com/" style="fill-rule:evenodd;clip-rule:evenodd;stroke-linejoin:round;stroke-miterlimit:2;"><g id="logomark_white"><g id="logomark"><path id="M-B" d="M8340.12,3069.69c380.353,-2222.62 2394.9,-3087.36 4448.06,-3069.42c123.331,1.075 314.653,1.303 437.884,2.572l517.934,-0.553c254.647,6.741 414.113,-47.431 422.135,213.331c3.715,123.631 -0.341,244.188 0.134,364.794c0.625,159.384 1.494,401.991 -1.147,594.522c-0.684,79.775 -10.284,348.115 -71,352.975c-71.237,5.703 -173.447,-152.213 -256.187,-219.225c-1074.16,-870.372 -3039.99,453.731 -2893.28,1731.09c26.994,243.418 151.397,465.584 344.947,615.984c791.613,624.309 2071.36,-72.781 2522.52,-773.534c52.519,-81.591 211.747,-427.644 283.822,-421.191c53.437,4.784 60.85,110.119 62.887,160.216c10.922,268.531 4.35,533.903 5.328,799.478l2.888,1491.74c0.294,284.669 0.878,570.06 -0.294,854.747c-0.294,68.488 12.25,204.413 -53.597,214.425c-28.581,4.344 -62.887,-4.453 -82.153,-27.765c-276.487,-334.404 -617.328,-504.11 -1062.91,-484.588c-962.375,42.175 -2040.06,915.984 -2030.18,1929.48c2.447,247.363 120.885,507.422 308.666,668.75c738.406,620.116 1854.33,96.191 2399.19,-524.609c88.119,-100.197 167.241,-208.009 236.291,-322.169c49.488,-81.934 140.331,-344.003 234.719,-313.4c66.415,21.531 42.437,538.547 46.169,816.135c5.962,443.543 2.228,1639.5 2.228,1639.5l-0.744,1270c-2.897,252.115 -10.103,492.24 -34.444,713.64c-7.04,64.053 -76.328,96.85 -131.903,98.672c-202.375,6.628 -371.941,2.122 -821.081,3.966l-1757.31,-1.563c-738.115,-0.097 -1354.62,0.413 -2223.55,0.416c-66.406,-2.244 -161.85,-1.491 -220.334,-34.594c-58.291,-32.912 -87.825,-104.297 -101.519,-166.309c-40,-180.86 12.91,-691.113 22.885,-899.219c61.325,-1284.18 44.403,-2066.41 792.296,-3184.97c439.232,-656.931 992.988,-1241.22 1585.57,-1761.83c196.585,-172.715 530.188,-387.168 685.007,-567.372c81.665,-95.031 140.153,-217.99 117.168,-346.084c-14.278,-79.172 -63.278,-141.212 -129,-185.391c-355.806,-238.818 -1678.48,-192.353 -2115.56,-97.725c-386.125,83.594 -731.072,213.632 -1054.51,444.697c-121.763,86.963 -238.932,183.985 -320.107,311.338c-48.9,76.3 -82.543,161.3 -99.172,250.344c-20.734,110.359 -5.106,160.706 -20.571,153.009c-3.05,-1.519 -1.169,-1614.89 -1.169,-1614.89c-3.913,-642.1 1.319,-592.296 3.003,-679.446l0.003,0.006Z" style="fill:#fff;fill-rule:nonzero;"/><path id="M-A" d="M8347.99,6410c-11.912,466.232 12.109,940.744 -3.612,1406.56c-25.294,750 -42.775,1488.77 -27.05,2238.97c6.053,250.588 14.55,501.075 25.39,751.466c5.272,137.013 15.428,278.028 8.494,414.941c-13.278,261.622 -281.028,223.656 -463.741,227.075c-96.875,1.756 -832.134,1.309 -1094.14,2.09c-517.294,1.541 -936.191,-1.222 -1411.59,-2.393c-200.666,-1.463 -418.609,1.518 -632.822,-1.116c-58.034,-0.716 -116.372,-6.613 -167.194,-35.716c-48.29,-27.734 -77.472,-86.425 -92.509,-137.89c-44.766,-153.125 27.109,-1171.29 37.316,-1406.64c21.103,-486.328 52.196,-963.962 181.025,-1435.84c308.181,-1128.81 1267.99,-2241.37 2140.44,-2990.18c200.391,-172.009 698.634,-508.415 803.225,-714.831c43.65,-86.184 61.719,-193.215 27.734,-285.694c-33.79,-91.906 -116.506,-151.593 -203.028,-189.553c-196.972,-86.328 -433.106,-100.262 -645.8,-114.012c-629.181,-40.713 -1298.05,-14.725 -1892.92,214.815c-356.318,137.491 -868.943,469.969 -1024.61,833.319c-21.531,50.791 -35.487,104.463 -41.416,159.316c-11.893,116.29 -4.034,309.309 -2.059,430.656c2.791,197.156 4.531,394.325 5.234,591.503l37.666,3240.53c3.916,278.029 10.216,555.957 18.906,833.788c7.763,239.844 41.141,633.594 -6.815,877.15c-7.063,35.841 -48.891,105.322 -148.607,116.309c-241.331,26.594 -497.753,14.063 -741.962,13.866l-1441.31,0.097l-920.06,-0.585c-136.437,-0.096 -295.1,3.697 -431.203,-1.965c-51.359,-2.05 -85.712,-4.188 -131.315,-29.578c-49.622,-27.735 -80.547,-77.832 -96.35,-131.25c-43.204,-145.8 31.671,-1183.99 42.959,-1423.14c11.466,-243.066 14.025,-488.966 39.337,-730.956c25.557,-244.338 80.479,-495.413 145.304,-732.032c300.39,-1096.19 1282.04,-2233.38 2135.53,-2959.89c89.015,-76.328 179.931,-150.4 272.665,-222.147c184.466,-142.003 426.788,-288.478 533.975,-502.316c41.25,-82.275 56.7,-184.903 24.591,-273.009c-107.225,-294.228 -691.31,-300.566 -948.125,-311.581c-160.138,-6.875 -320.46,-13.272 -480.694,-5.694c-211.591,10.009 -1114.31,98.912 -1274.78,23.878c-19.175,-8.966 -42.519,-20.863 -38.582,-44.884c6.519,-39.8 181.16,-106.15 249.782,-128.397c103.253,-33.613 205.625,-69.863 307.012,-108.722c243.506,-94.688 566.172,-257.1 758.75,-432.5c430.41,-392.022 694.356,-1001.18 741.181,-1576.98c38.81,-440.782 -5.018,-882.863 -15.253,-1324.08c-3.028,-130.431 -39.59,-337.109 51.25,-441.525c35.332,-40.606 94.353,-87.272 175.994,-88.356c307.816,-4.078 616.925,1.178 924.728,0.809l1722.04,-0.093l1785.79,-0.997l671.007,0.637c279.162,1.941 494.953,-22.625 509.062,165.853c17.385,232.166 8.888,475.038 7.619,708.954c-17.091,266.337 -4.2,669.815 -4.394,945.165c-2.834,642.11 -2.247,1284.23 1.66,1926.33l-4.397,1605.9l-1.366,678.516c0,111.953 -4.394,266.903 2.05,376.053l0,0.006Z" style="fill:#fff;fill-rule:nonzero;"/></g></g></svg>